<?xml version="1.0" encoding="UTF-8" standalone="no"?>
<!DOCTYPE svg PUBLIC "-//W3C//DTD SVG 1.1//EN"
 "http://www.w3.org/Graphics/SVG/1.1/DTD/svg11.dtd">
<!-- Generated by graphviz version 5.0.0 (20220707.1540)
 -->
<!-- Title: dependencies Pages: 1 -->
<svg width="384pt" height="174pt"
 viewBox="0.00 0.00 384.00 173.80" xmlns="http://www.w3.org/2000/svg" xmlns:xlink="http://www.w3.org/1999/xlink">
<g id="graph0" class="graph" transform="scale(1 1) rotate(0) translate(4 169.8)">
<title>dependencies</title>
<polygon fill="white" stroke="transparent" points="-4,4 -4,-169.8 380,-169.8 380,4 -4,4"/>
<text text-anchor="middle" x="188" y="-8.2" font-family="sans-serif" font-size="14.00">dependencies</text>
<g id="clust1" class="cluster">
<title>cluster_CoreModule</title>
<polygon fill="none" stroke="black" stroke-dasharray="1,5" points="8,-32.8 8,-157.8 368,-157.8 368,-32.8 8,-32.8"/>
</g>
<g id="clust4" class="cluster">
<title>cluster_CoreModule_exports</title>
<polygon fill="none" stroke="black" points="16,-97.8 16,-149.8 360,-149.8 360,-97.8 16,-97.8"/>
</g>
<!-- IconsModule  -->
<g id="node1" class="node">
<title>IconsModule </title>
<polygon fill="#fb8072" stroke="black" points="351.88,-141.8 258.12,-141.8 258.12,-105.8 351.88,-105.8 351.88,-141.8"/>
<text text-anchor="middle" x="305" y="-119.6" font-family="Times,serif" font-size="14.00">IconsModule </text>
</g>
<!-- TemplatesModule  -->
<g id="node2" class="node">
<title>TemplatesModule </title>
<polygon fill="#fb8072" stroke="black" points="240.86,-141.8 119.14,-141.8 119.14,-105.8 240.86,-105.8 240.86,-141.8"/>
<text text-anchor="middle" x="180" y="-119.6" font-family="Times,serif" font-size="14.00">TemplatesModule </text>
</g>
<!-- UiModule  -->
<g id="node3" class="node">
<title>UiModule </title>
<polygon fill="#fb8072" stroke="black" points="101.55,-141.8 24.45,-141.8 24.45,-105.8 101.55,-105.8 101.55,-141.8"/>
<text text-anchor="middle" x="63" y="-119.6" font-family="Times,serif" font-size="14.00">UiModule </text>
</g>
<!-- CoreModule -->
<g id="node4" class="node">
<title>CoreModule</title>
<polygon fill="#8dd3c7" stroke="black" points="223.27,-76.8 220.27,-80.8 199.27,-80.8 196.27,-76.8 136.73,-76.8 136.73,-40.8 223.27,-40.8 223.27,-76.8"/>
<text text-anchor="middle" x="180" y="-54.6" font-family="Times,serif" font-size="14.00">CoreModule</text>
</g>
<!-- CoreModule&#45;&gt;IconsModule  -->
<g id="edge1" class="edge">
<title>CoreModule&#45;&gt;IconsModule </title>
<path fill="none" stroke="black" stroke-dasharray="5,2" d="M223.37,-58.8C259.47,-58.8 305,-58.8 305,-58.8 305,-58.8 305,-95.69 305,-95.69"/>
<polygon fill="black" stroke="black" points="301.5,-95.69 305,-105.69 308.5,-95.69 301.5,-95.69"/>
</g>
<!-- CoreModule&#45;&gt;TemplatesModule  -->
<g id="edge2" class="edge">
<title>CoreModule&#45;&gt;TemplatesModule </title>
<path fill="none" stroke="black" stroke-dasharray="5,2" d="M180,-76.91C180,-76.91 180,-95.79 180,-95.79"/>
<polygon fill="black" stroke="black" points="176.5,-95.79 180,-105.79 183.5,-95.79 176.5,-95.79"/>
</g>
<!-- CoreModule&#45;&gt;UiModule  -->
<g id="edge3" class="edge">
<title>CoreModule&#45;&gt;UiModule </title>
<path fill="none" stroke="black" stroke-dasharray="5,2" d="M136.43,-58.8C103.17,-58.8 63,-58.8 63,-58.8 63,-58.8 63,-95.69 63,-95.69"/>
<polygon fill="black" stroke="black" points="59.5,-95.69 63,-105.69 66.5,-95.69 59.5,-95.69"/>
</g>
</g>
</svg>
