<?xml version="1.0" encoding="UTF-8" standalone="no"?>
<!DOCTYPE svg PUBLIC "-//W3C//DTD SVG 1.1//EN"
 "http://www.w3.org/Graphics/SVG/1.1/DTD/svg11.dtd">
<!-- Generated by graphviz version 5.0.0 (20220707.1540)
 -->
<!-- Title: dependencies Pages: 1 -->
<svg width="762pt" height="174pt"
 viewBox="0.00 0.00 762.00 173.80" xmlns="http://www.w3.org/2000/svg" xmlns:xlink="http://www.w3.org/1999/xlink">
<g id="graph0" class="graph" transform="scale(1 1) rotate(0) translate(4 169.8)">
<title>dependencies</title>
<polygon fill="white" stroke="transparent" points="-4,4 -4,-169.8 758,-169.8 758,4 -4,4"/>
<text text-anchor="middle" x="377" y="-8.2" font-family="sans-serif" font-size="14.00">dependencies</text>
<g id="clust1" class="cluster">
<title>cluster_ClientsModule</title>
<polygon fill="none" stroke="black" stroke-dasharray="1,5" points="8,-32.8 8,-157.8 746,-157.8 746,-32.8 8,-32.8"/>
</g>
<g id="clust2" class="cluster">
<title>cluster_ClientsModule_declarations</title>
<polygon fill="none" stroke="black" points="184,-40.8 184,-92.8 738,-92.8 738,-40.8 184,-40.8"/>
</g>
<g id="clust6" class="cluster">
<title>cluster_ClientsModule_imports</title>
<polygon fill="none" stroke="black" points="16,-40.8 16,-92.8 176,-92.8 176,-40.8 16,-40.8"/>
</g>
<!-- PageAddClientComponent -->
<g id="node1" class="node">
<title>PageAddClientComponent</title>
<polygon fill="#ffffb3" stroke="black" points="730.38,-84.8 563.62,-84.8 563.62,-48.8 730.38,-48.8 730.38,-84.8"/>
<text text-anchor="middle" x="647" y="-62.6" font-family="Times,serif" font-size="14.00">PageAddClientComponent</text>
</g>
<!-- ClientsModule -->
<g id="node4" class="node">
<title>ClientsModule</title>
<polygon fill="#8dd3c7" stroke="black" points="419.72,-149.8 416.72,-153.8 395.72,-153.8 392.72,-149.8 320.28,-149.8 320.28,-113.8 419.72,-113.8 419.72,-149.8"/>
<text text-anchor="middle" x="370" y="-127.6" font-family="Times,serif" font-size="14.00">ClientsModule</text>
</g>
<!-- PageAddClientComponent&#45;&gt;ClientsModule -->
<g id="edge1" class="edge">
<title>PageAddClientComponent&#45;&gt;ClientsModule</title>
<path fill="none" stroke="black" d="M647,-84.91C647,-104.14 647,-131.8 647,-131.8 647,-131.8 429.84,-131.8 429.84,-131.8"/>
<polygon fill="black" stroke="black" points="429.84,-128.3 419.84,-131.8 429.84,-135.3 429.84,-128.3"/>
</g>
<!-- PageEditClientComponent -->
<g id="node2" class="node">
<title>PageEditClientComponent</title>
<polygon fill="#ffffb3" stroke="black" points="546.1,-84.8 379.9,-84.8 379.9,-48.8 546.1,-48.8 546.1,-84.8"/>
<text text-anchor="middle" x="463" y="-62.6" font-family="Times,serif" font-size="14.00">PageEditClientComponent</text>
</g>
<!-- PageEditClientComponent&#45;&gt;ClientsModule -->
<g id="edge2" class="edge">
<title>PageEditClientComponent&#45;&gt;ClientsModule</title>
<path fill="none" stroke="black" d="M399.78,-84.91C399.78,-84.91 399.78,-103.79 399.78,-103.79"/>
<polygon fill="black" stroke="black" points="396.28,-103.79 399.78,-113.79 403.28,-103.79 396.28,-103.79"/>
</g>
<!-- PageListClientsComponent -->
<g id="node3" class="node">
<title>PageListClientsComponent</title>
<polygon fill="#ffffb3" stroke="black" points="361.99,-84.8 192.01,-84.8 192.01,-48.8 361.99,-48.8 361.99,-84.8"/>
<text text-anchor="middle" x="277" y="-62.6" font-family="Times,serif" font-size="14.00">PageListClientsComponent</text>
</g>
<!-- PageListClientsComponent&#45;&gt;ClientsModule -->
<g id="edge3" class="edge">
<title>PageListClientsComponent&#45;&gt;ClientsModule</title>
<path fill="none" stroke="black" d="M341.19,-84.91C341.19,-84.91 341.19,-103.79 341.19,-103.79"/>
<polygon fill="black" stroke="black" points="337.69,-103.79 341.19,-113.79 344.69,-103.79 337.69,-103.79"/>
</g>
<!-- ClientsRoutingModule -->
<g id="node5" class="node">
<title>ClientsRoutingModule</title>
<polygon fill="#8dd3c7" stroke="black" points="168.34,-84.8 165.34,-88.8 144.34,-88.8 141.34,-84.8 23.66,-84.8 23.66,-48.8 168.34,-48.8 168.34,-84.8"/>
<text text-anchor="middle" x="96" y="-62.6" font-family="Times,serif" font-size="14.00">ClientsRoutingModule</text>
</g>
<!-- ClientsRoutingModule&#45;&gt;ClientsModule -->
<g id="edge4" class="edge">
<title>ClientsRoutingModule&#45;&gt;ClientsModule</title>
<path fill="none" stroke="black" d="M96,-84.91C96,-104.14 96,-131.8 96,-131.8 96,-131.8 310.38,-131.8 310.38,-131.8"/>
<polygon fill="black" stroke="black" points="310.38,-135.3 320.38,-131.8 310.38,-128.3 310.38,-135.3"/>
</g>
</g>
</svg>
