<?xml version="1.0" encoding="UTF-8" standalone="no"?>
<!DOCTYPE svg PUBLIC "-//W3C//DTD SVG 1.1//EN"
 "http://www.w3.org/Graphics/SVG/1.1/DTD/svg11.dtd">
<!-- Generated by graphviz version 5.0.0 (20220707.1540)
 -->
<!-- Title: dependencies Pages: 1 -->
<svg width="3220pt" height="253pt"
 viewBox="0.00 0.00 3220.00 252.80" xmlns="http://www.w3.org/2000/svg" xmlns:xlink="http://www.w3.org/1999/xlink">
<g id="graph0" class="graph" transform="scale(1 1) rotate(0) translate(4 248.8)">
<title>dependencies</title>
<polygon fill="white" stroke="transparent" points="-4,4 -4,-248.8 3216,-248.8 3216,4 -4,4"/>
<text text-anchor="middle" x="1606" y="-8.2" font-family="sans-serif" font-size="14.00">dependencies</text>
<g id="clust1" class="cluster">
<title>cluster_AppModule</title>
<polygon fill="none" stroke="black" stroke-dasharray="1,5" points="8,-32.8 8,-236.8 403,-236.8 403,-32.8 8,-32.8"/>
</g>
<g id="clust2" class="cluster">
<title>cluster_AppModule_declarations</title>
<polygon fill="none" stroke="black" points="16,-40.8 16,-92.8 138,-92.8 138,-40.8 16,-40.8"/>
</g>
<g id="clust4" class="cluster">
<title>cluster_AppModule_imports</title>
<polygon fill="none" stroke="black" points="146,-40.8 146,-92.8 395,-92.8 395,-40.8 146,-40.8"/>
</g>
<g id="clust6" class="cluster">
<title>cluster_AppModule_bootstrap</title>
<polygon fill="none" stroke="black" points="156,-176.8 156,-228.8 280,-228.8 280,-176.8 156,-176.8"/>
</g>
<g id="clust14" class="cluster">
<title>cluster_ClientsModule</title>
<polygon fill="none" stroke="black" stroke-dasharray="1,5" points="779,-32.8 779,-160.8 1517,-160.8 1517,-32.8 779,-32.8"/>
</g>
<g id="clust15" class="cluster">
<title>cluster_ClientsModule_declarations</title>
<polygon fill="none" stroke="black" points="955,-40.8 955,-92.8 1509,-92.8 1509,-40.8 955,-40.8"/>
</g>
<g id="clust19" class="cluster">
<title>cluster_ClientsModule_imports</title>
<polygon fill="none" stroke="black" points="787,-40.8 787,-92.8 947,-92.8 947,-40.8 787,-40.8"/>
</g>
<g id="clust29" class="cluster">
<title>cluster_CoreModule</title>
<polygon fill="none" stroke="black" stroke-dasharray="1,5" points="411,-100.8 411,-168.8 771,-168.8 771,-100.8 411,-100.8"/>
</g>
<g id="clust32" class="cluster">
<title>cluster_CoreModule_exports</title>
<polygon fill="none" stroke="black" points="419,-108.8 419,-160.8 763,-160.8 763,-108.8 419,-108.8"/>
</g>
<g id="clust41" class="cluster">
<title>cluster_LoginModule</title>
<polygon fill="none" stroke="black" stroke-dasharray="1,5" points="1525,-32.8 1525,-160.8 2464,-160.8 2464,-32.8 1525,-32.8"/>
</g>
<g id="clust42" class="cluster">
<title>cluster_LoginModule_declarations</title>
<polygon fill="none" stroke="black" points="1695,-40.8 1695,-92.8 2456,-92.8 2456,-40.8 1695,-40.8"/>
</g>
<g id="clust47" class="cluster">
<title>cluster_LoginModule_imports</title>
<polygon fill="none" stroke="black" points="1533,-40.8 1533,-92.8 1687,-92.8 1687,-40.8 1533,-40.8"/>
</g>
<g id="clust57" class="cluster">
<title>cluster_OrdersModule</title>
<polygon fill="none" stroke="black" stroke-dasharray="1,5" points="2472,-32.8 2472,-160.8 3204,-160.8 3204,-32.8 2472,-32.8"/>
</g>
<g id="clust58" class="cluster">
<title>cluster_OrdersModule_declarations</title>
<polygon fill="none" stroke="black" points="2646,-40.8 2646,-92.8 3196,-92.8 3196,-40.8 2646,-40.8"/>
</g>
<g id="clust62" class="cluster">
<title>cluster_OrdersModule_imports</title>
<polygon fill="none" stroke="black" points="2480,-40.8 2480,-92.8 2638,-92.8 2638,-40.8 2480,-40.8"/>
</g>
<!-- AppComponent -->
<g id="node1" class="node">
<title>AppComponent</title>
<polygon fill="#ffffb3" stroke="black" points="129.94,-84.8 24.06,-84.8 24.06,-48.8 129.94,-48.8 129.94,-84.8"/>
<text text-anchor="middle" x="77" y="-62.6" font-family="Times,serif" font-size="14.00">AppComponent</text>
</g>
<!-- AppModule -->
<g id="node2" class="node">
<title>AppModule</title>
<polygon fill="#8dd3c7" stroke="black" points="259.66,-152.8 256.66,-156.8 235.66,-156.8 232.66,-152.8 176.34,-152.8 176.34,-116.8 259.66,-116.8 259.66,-152.8"/>
<text text-anchor="middle" x="218" y="-130.6" font-family="Times,serif" font-size="14.00">AppModule</text>
</g>
<!-- AppComponent&#45;&gt;AppModule -->
<g id="edge1" class="edge">
<title>AppComponent&#45;&gt;AppModule</title>
<path fill="none" stroke="black" d="M77,-85.02C77,-105.17 77,-134.8 77,-134.8 77,-134.8 166.08,-134.8 166.08,-134.8"/>
<polygon fill="black" stroke="black" points="166.08,-138.3 176.08,-134.8 166.08,-131.3 166.08,-138.3"/>
</g>
<!-- AppComponent  -->
<g id="node5" class="node">
<title>AppComponent </title>
<polygon fill="#80b1d3" stroke="black" points="272.44,-220.8 163.56,-220.8 163.56,-184.8 272.44,-184.8 272.44,-220.8"/>
<text text-anchor="middle" x="218" y="-198.6" font-family="Times,serif" font-size="14.00">AppComponent </text>
</g>
<!-- AppModule&#45;&gt;AppComponent  -->
<g id="edge4" class="edge">
<title>AppModule&#45;&gt;AppComponent </title>
<path fill="none" stroke="black" stroke-dasharray="1,5" d="M218,-153.02C218,-153.02 218,-174.53 218,-174.53"/>
<polygon fill="black" stroke="black" points="214.5,-174.53 218,-184.53 221.5,-174.53 214.5,-174.53"/>
</g>
<!-- AppRoutingModule -->
<g id="node3" class="node">
<title>AppRoutingModule</title>
<polygon fill="#8dd3c7" stroke="black" points="282.28,-84.8 279.28,-88.8 258.28,-88.8 255.28,-84.8 153.72,-84.8 153.72,-48.8 282.28,-48.8 282.28,-84.8"/>
<text text-anchor="middle" x="218" y="-62.6" font-family="Times,serif" font-size="14.00">AppRoutingModule</text>
</g>
<!-- AppRoutingModule&#45;&gt;AppModule -->
<g id="edge2" class="edge">
<title>AppRoutingModule&#45;&gt;AppModule</title>
<path fill="none" stroke="black" d="M218,-85.02C218,-85.02 218,-106.53 218,-106.53"/>
<polygon fill="black" stroke="black" points="214.5,-106.53 218,-116.53 221.5,-106.53 214.5,-106.53"/>
</g>
<!-- CoreModule -->
<g id="node4" class="node">
<title>CoreModule</title>
<polygon fill="#8dd3c7" stroke="black" points="387.27,-84.8 384.27,-88.8 363.27,-88.8 360.27,-84.8 300.73,-84.8 300.73,-48.8 387.27,-48.8 387.27,-84.8"/>
<text text-anchor="middle" x="344" y="-62.6" font-family="Times,serif" font-size="14.00">CoreModule</text>
</g>
<!-- CoreModule&#45;&gt;AppModule -->
<g id="edge3" class="edge">
<title>CoreModule&#45;&gt;AppModule</title>
<path fill="none" stroke="black" d="M344,-85.02C344,-105.17 344,-134.8 344,-134.8 344,-134.8 269.96,-134.8 269.96,-134.8"/>
<polygon fill="black" stroke="black" points="269.96,-131.3 259.96,-134.8 269.96,-138.3 269.96,-131.3"/>
</g>
<!-- IconsModule  -->
<g id="node11" class="node">
<title>IconsModule </title>
<polygon fill="#fb8072" stroke="black" points="754.88,-152.8 661.12,-152.8 661.12,-116.8 754.88,-116.8 754.88,-152.8"/>
<text text-anchor="middle" x="708" y="-130.6" font-family="Times,serif" font-size="14.00">IconsModule </text>
</g>
<!-- CoreModule&#45;&gt;IconsModule  -->
<g id="edge9" class="edge">
<title>CoreModule&#45;&gt;IconsModule </title>
<path fill="none" stroke="black" stroke-dasharray="5,2" d="M387.55,-57.8C484.16,-57.8 708,-57.8 708,-57.8 708,-57.8 708,-106.55 708,-106.55"/>
<polygon fill="black" stroke="black" points="704.5,-106.55 708,-116.55 711.5,-106.55 704.5,-106.55"/>
</g>
<!-- TemplatesModule  -->
<g id="node12" class="node">
<title>TemplatesModule </title>
<polygon fill="#fb8072" stroke="black" points="643.86,-152.8 522.14,-152.8 522.14,-116.8 643.86,-116.8 643.86,-152.8"/>
<text text-anchor="middle" x="583" y="-130.6" font-family="Times,serif" font-size="14.00">TemplatesModule </text>
</g>
<!-- CoreModule&#45;&gt;TemplatesModule  -->
<g id="edge10" class="edge">
<title>CoreModule&#45;&gt;TemplatesModule </title>
<path fill="none" stroke="black" stroke-dasharray="5,2" d="M387.28,-66.8C456.15,-66.8 583,-66.8 583,-66.8 583,-66.8 583,-106.58 583,-106.58"/>
<polygon fill="black" stroke="black" points="579.5,-106.58 583,-116.58 586.5,-106.58 579.5,-106.58"/>
</g>
<!-- UiModule  -->
<g id="node13" class="node">
<title>UiModule </title>
<polygon fill="#fb8072" stroke="black" points="504.55,-152.8 427.45,-152.8 427.45,-116.8 504.55,-116.8 504.55,-152.8"/>
<text text-anchor="middle" x="466" y="-130.6" font-family="Times,serif" font-size="14.00">UiModule </text>
</g>
<!-- CoreModule&#45;&gt;UiModule  -->
<g id="edge11" class="edge">
<title>CoreModule&#45;&gt;UiModule </title>
<path fill="none" stroke="black" stroke-dasharray="5,2" d="M387.36,-75.8C422.42,-75.8 466,-75.8 466,-75.8 466,-75.8 466,-106.78 466,-106.78"/>
<polygon fill="black" stroke="black" points="462.5,-106.78 466,-116.78 469.5,-106.78 462.5,-106.78"/>
</g>
<!-- PageAddClientComponent -->
<g id="node6" class="node">
<title>PageAddClientComponent</title>
<polygon fill="#ffffb3" stroke="black" points="1501.38,-84.8 1334.62,-84.8 1334.62,-48.8 1501.38,-48.8 1501.38,-84.8"/>
<text text-anchor="middle" x="1418" y="-62.6" font-family="Times,serif" font-size="14.00">PageAddClientComponent</text>
</g>
<!-- ClientsModule -->
<g id="node9" class="node">
<title>ClientsModule</title>
<polygon fill="#8dd3c7" stroke="black" points="1190.72,-152.8 1187.72,-156.8 1166.72,-156.8 1163.72,-152.8 1091.28,-152.8 1091.28,-116.8 1190.72,-116.8 1190.72,-152.8"/>
<text text-anchor="middle" x="1141" y="-130.6" font-family="Times,serif" font-size="14.00">ClientsModule</text>
</g>
<!-- PageAddClientComponent&#45;&gt;ClientsModule -->
<g id="edge5" class="edge">
<title>PageAddClientComponent&#45;&gt;ClientsModule</title>
<path fill="none" stroke="black" d="M1418,-84.82C1418,-102.17 1418,-125.8 1418,-125.8 1418,-125.8 1200.84,-125.8 1200.84,-125.8"/>
<polygon fill="black" stroke="black" points="1200.84,-122.3 1190.84,-125.8 1200.84,-129.3 1200.84,-122.3"/>
</g>
<!-- PageEditClientComponent -->
<g id="node7" class="node">
<title>PageEditClientComponent</title>
<polygon fill="#ffffb3" stroke="black" points="1317.1,-84.8 1150.9,-84.8 1150.9,-48.8 1317.1,-48.8 1317.1,-84.8"/>
<text text-anchor="middle" x="1234" y="-62.6" font-family="Times,serif" font-size="14.00">PageEditClientComponent</text>
</g>
<!-- PageEditClientComponent&#45;&gt;ClientsModule -->
<g id="edge6" class="edge">
<title>PageEditClientComponent&#45;&gt;ClientsModule</title>
<path fill="none" stroke="black" d="M1170.78,-85.02C1170.78,-85.02 1170.78,-106.53 1170.78,-106.53"/>
<polygon fill="black" stroke="black" points="1167.28,-106.53 1170.78,-116.53 1174.28,-106.53 1167.28,-106.53"/>
</g>
<!-- PageListClientsComponent -->
<g id="node8" class="node">
<title>PageListClientsComponent</title>
<polygon fill="#ffffb3" stroke="black" points="1132.99,-84.8 963.01,-84.8 963.01,-48.8 1132.99,-48.8 1132.99,-84.8"/>
<text text-anchor="middle" x="1048" y="-62.6" font-family="Times,serif" font-size="14.00">PageListClientsComponent</text>
</g>
<!-- PageListClientsComponent&#45;&gt;ClientsModule -->
<g id="edge7" class="edge">
<title>PageListClientsComponent&#45;&gt;ClientsModule</title>
<path fill="none" stroke="black" d="M1112.19,-85.02C1112.19,-85.02 1112.19,-106.53 1112.19,-106.53"/>
<polygon fill="black" stroke="black" points="1108.69,-106.53 1112.19,-116.53 1115.69,-106.53 1108.69,-106.53"/>
</g>
<!-- ClientsRoutingModule -->
<g id="node10" class="node">
<title>ClientsRoutingModule</title>
<polygon fill="#8dd3c7" stroke="black" points="939.34,-84.8 936.34,-88.8 915.34,-88.8 912.34,-84.8 794.66,-84.8 794.66,-48.8 939.34,-48.8 939.34,-84.8"/>
<text text-anchor="middle" x="867" y="-62.6" font-family="Times,serif" font-size="14.00">ClientsRoutingModule</text>
</g>
<!-- ClientsRoutingModule&#45;&gt;ClientsModule -->
<g id="edge8" class="edge">
<title>ClientsRoutingModule&#45;&gt;ClientsModule</title>
<path fill="none" stroke="black" d="M867,-85.02C867,-105.17 867,-134.8 867,-134.8 867,-134.8 1081.38,-134.8 1081.38,-134.8"/>
<polygon fill="black" stroke="black" points="1081.38,-138.3 1091.38,-134.8 1081.38,-131.3 1081.38,-138.3"/>
</g>
<!-- PageForgotPasswordComponent -->
<g id="node14" class="node">
<title>PageForgotPasswordComponent</title>
<polygon fill="#ffffb3" stroke="black" points="2447.55,-84.8 2248.45,-84.8 2248.45,-48.8 2447.55,-48.8 2447.55,-84.8"/>
<text text-anchor="middle" x="2348" y="-62.6" font-family="Times,serif" font-size="14.00">PageForgotPasswordComponent</text>
</g>
<!-- LoginModule -->
<g id="node18" class="node">
<title>LoginModule</title>
<polygon fill="#8dd3c7" stroke="black" points="1992.49,-152.8 1989.49,-156.8 1968.49,-156.8 1965.49,-152.8 1899.51,-152.8 1899.51,-116.8 1992.49,-116.8 1992.49,-152.8"/>
<text text-anchor="middle" x="1946" y="-130.6" font-family="Times,serif" font-size="14.00">LoginModule</text>
</g>
<!-- PageForgotPasswordComponent&#45;&gt;LoginModule -->
<g id="edge12" class="edge">
<title>PageForgotPasswordComponent&#45;&gt;LoginModule</title>
<path fill="none" stroke="black" d="M2348,-85.05C2348,-107.82 2348,-143.8 2348,-143.8 2348,-143.8 2002.51,-143.8 2002.51,-143.8"/>
<polygon fill="black" stroke="black" points="2002.51,-140.3 1992.51,-143.8 2002.51,-147.3 2002.51,-140.3"/>
</g>
<!-- PageResetPasswordComponent -->
<g id="node15" class="node">
<title>PageResetPasswordComponent</title>
<polygon fill="#ffffb3" stroke="black" points="2230.82,-84.8 2037.18,-84.8 2037.18,-48.8 2230.82,-48.8 2230.82,-84.8"/>
<text text-anchor="middle" x="2134" y="-62.6" font-family="Times,serif" font-size="14.00">PageResetPasswordComponent</text>
</g>
<!-- PageResetPasswordComponent&#45;&gt;LoginModule -->
<g id="edge13" class="edge">
<title>PageResetPasswordComponent&#45;&gt;LoginModule</title>
<path fill="none" stroke="black" d="M2134,-85.02C2134,-105.17 2134,-134.8 2134,-134.8 2134,-134.8 2002.96,-134.8 2002.96,-134.8"/>
<polygon fill="black" stroke="black" points="2002.96,-131.3 1992.96,-134.8 2002.96,-138.3 2002.96,-131.3"/>
</g>
<!-- PageSignInComponent -->
<g id="node16" class="node">
<title>PageSignInComponent</title>
<polygon fill="#ffffb3" stroke="black" points="2018.88,-84.8 1873.12,-84.8 1873.12,-48.8 2018.88,-48.8 2018.88,-84.8"/>
<text text-anchor="middle" x="1946" y="-62.6" font-family="Times,serif" font-size="14.00">PageSignInComponent</text>
</g>
<!-- PageSignInComponent&#45;&gt;LoginModule -->
<g id="edge14" class="edge">
<title>PageSignInComponent&#45;&gt;LoginModule</title>
<path fill="none" stroke="black" d="M1946,-85.02C1946,-85.02 1946,-106.53 1946,-106.53"/>
<polygon fill="black" stroke="black" points="1942.5,-106.53 1946,-116.53 1949.5,-106.53 1942.5,-106.53"/>
</g>
<!-- PageSignUpComponent -->
<g id="node17" class="node">
<title>PageSignUpComponent</title>
<polygon fill="#ffffb3" stroke="black" points="1854.83,-84.8 1703.17,-84.8 1703.17,-48.8 1854.83,-48.8 1854.83,-84.8"/>
<text text-anchor="middle" x="1779" y="-62.6" font-family="Times,serif" font-size="14.00">PageSignUpComponent</text>
</g>
<!-- PageSignUpComponent&#45;&gt;LoginModule -->
<g id="edge15" class="edge">
<title>PageSignUpComponent&#45;&gt;LoginModule</title>
<path fill="none" stroke="black" d="M1779,-85.02C1779,-105.17 1779,-134.8 1779,-134.8 1779,-134.8 1889.48,-134.8 1889.48,-134.8"/>
<polygon fill="black" stroke="black" points="1889.48,-138.3 1899.48,-134.8 1889.48,-131.3 1889.48,-138.3"/>
</g>
<!-- LoginRoutingModule -->
<g id="node19" class="node">
<title>LoginRoutingModule</title>
<polygon fill="#8dd3c7" stroke="black" points="1679.11,-84.8 1676.11,-88.8 1655.11,-88.8 1652.11,-84.8 1540.89,-84.8 1540.89,-48.8 1679.11,-48.8 1679.11,-84.8"/>
<text text-anchor="middle" x="1610" y="-62.6" font-family="Times,serif" font-size="14.00">LoginRoutingModule</text>
</g>
<!-- LoginRoutingModule&#45;&gt;LoginModule -->
<g id="edge16" class="edge">
<title>LoginRoutingModule&#45;&gt;LoginModule</title>
<path fill="none" stroke="black" d="M1610,-85.05C1610,-107.82 1610,-143.8 1610,-143.8 1610,-143.8 1889.28,-143.8 1889.28,-143.8"/>
<polygon fill="black" stroke="black" points="1889.28,-147.3 1899.28,-143.8 1889.28,-140.3 1889.28,-147.3"/>
</g>
<!-- PageAddOrderComponent -->
<g id="node20" class="node">
<title>PageAddOrderComponent</title>
<polygon fill="#ffffb3" stroke="black" points="3187.8,-84.8 3022.2,-84.8 3022.2,-48.8 3187.8,-48.8 3187.8,-84.8"/>
<text text-anchor="middle" x="3105" y="-62.6" font-family="Times,serif" font-size="14.00">PageAddOrderComponent</text>
</g>
<!-- OrdersModule -->
<g id="node23" class="node">
<title>OrdersModule</title>
<polygon fill="#8dd3c7" stroke="black" points="2878.65,-152.8 2875.65,-156.8 2854.65,-156.8 2851.65,-152.8 2781.35,-152.8 2781.35,-116.8 2878.65,-116.8 2878.65,-152.8"/>
<text text-anchor="middle" x="2830" y="-130.6" font-family="Times,serif" font-size="14.00">OrdersModule</text>
</g>
<!-- PageAddOrderComponent&#45;&gt;OrdersModule -->
<g id="edge17" class="edge">
<title>PageAddOrderComponent&#45;&gt;OrdersModule</title>
<path fill="none" stroke="black" d="M3105,-85.02C3105,-105.17 3105,-134.8 3105,-134.8 3105,-134.8 2888.85,-134.8 2888.85,-134.8"/>
<polygon fill="black" stroke="black" points="2888.85,-131.3 2878.85,-134.8 2888.85,-138.3 2888.85,-131.3"/>
</g>
<!-- PageEditOrderComponent -->
<g id="node21" class="node">
<title>PageEditOrderComponent</title>
<polygon fill="#ffffb3" stroke="black" points="3004.03,-84.8 2839.97,-84.8 2839.97,-48.8 3004.03,-48.8 3004.03,-84.8"/>
<text text-anchor="middle" x="2922" y="-62.6" font-family="Times,serif" font-size="14.00">PageEditOrderComponent</text>
</g>
<!-- PageEditOrderComponent&#45;&gt;OrdersModule -->
<g id="edge18" class="edge">
<title>PageEditOrderComponent&#45;&gt;OrdersModule</title>
<path fill="none" stroke="black" d="M2859.28,-85.02C2859.28,-85.02 2859.28,-106.53 2859.28,-106.53"/>
<polygon fill="black" stroke="black" points="2855.78,-106.53 2859.28,-116.53 2862.78,-106.53 2855.78,-106.53"/>
</g>
<!-- PageListOrdersComponent -->
<g id="node22" class="node">
<title>PageListOrdersComponent</title>
<polygon fill="#ffffb3" stroke="black" points="2822.42,-84.8 2653.58,-84.8 2653.58,-48.8 2822.42,-48.8 2822.42,-84.8"/>
<text text-anchor="middle" x="2738" y="-62.6" font-family="Times,serif" font-size="14.00">PageListOrdersComponent</text>
</g>
<!-- PageListOrdersComponent&#45;&gt;OrdersModule -->
<g id="edge19" class="edge">
<title>PageListOrdersComponent&#45;&gt;OrdersModule</title>
<path fill="none" stroke="black" d="M2801.69,-85.02C2801.69,-85.02 2801.69,-106.53 2801.69,-106.53"/>
<polygon fill="black" stroke="black" points="2798.19,-106.53 2801.69,-116.53 2805.19,-106.53 2798.19,-106.53"/>
</g>
<!-- OrdersRoutingModule -->
<g id="node24" class="node">
<title>OrdersRoutingModule</title>
<polygon fill="#8dd3c7" stroke="black" points="2630.27,-84.8 2627.27,-88.8 2606.27,-88.8 2603.27,-84.8 2487.73,-84.8 2487.73,-48.8 2630.27,-48.8 2630.27,-84.8"/>
<text text-anchor="middle" x="2559" y="-62.6" font-family="Times,serif" font-size="14.00">OrdersRoutingModule</text>
</g>
<!-- OrdersRoutingModule&#45;&gt;OrdersModule -->
<g id="edge20" class="edge">
<title>OrdersRoutingModule&#45;&gt;OrdersModule</title>
<path fill="none" stroke="black" d="M2559,-84.82C2559,-102.17 2559,-125.8 2559,-125.8 2559,-125.8 2771.24,-125.8 2771.24,-125.8"/>
<polygon fill="black" stroke="black" points="2771.24,-129.3 2781.24,-125.8 2771.24,-122.3 2771.24,-129.3"/>
</g>
</g>
</svg>
